<svg xmlns="http://www.w3.org/2000/svg" viewBox="0 0 807.204 482.832"><defs><style>.a{fill:none;stroke:#fff;stroke-width:25px;}.b{fill:#fff;font-size:150px;font-family:SegoeUI-Bold, Segoe UI;font-weight:700;letter-spacing:1.7em;}</style></defs><g transform="translate(-645.5 -320)"><line class="a" y2="239.007" transform="translate(658 563.825)"/><line class="a" y2="195.551" transform="translate(701.456 563.825)"/><line class="a" y2="157.527" transform="translate(744.912 563.825)"/><line class="a" y2="130.367" transform="translate(788.367 563.825)"/><line class="a" y2="103.208" transform="translate(831.823 563.825)"/><line class="a" y2="76.048" transform="translate(875.279 563.825)"/><line class="a" y2="65.184" transform="translate(918.735 563.825)"/><line class="a" y2="43.456" transform="translate(962.191 563.825)"/><line class="a" y2="32.592" transform="translate(1005.646 563.825)"/><line class="a" y2="32.592" transform="translate(1049.102 563.825)"/><line class="a" y2="32.592" transform="translate(1092.558 563.825)"/><line class="a" y2="43.456" transform="translate(1136.014 563.825)"/><line class="a" y2="65.184" transform="translate(1179.469 563.825)"/><line class="a" y2="76.048" transform="translate(1222.925 563.825)"/><line class="a" y2="103.208" transform="translate(1266.381 563.825)"/><line class="a" y2="130.367" transform="translate(1309.837 563.825)"/><line class="a" y2="157.527" transform="translate(1353.293 563.825)"/><line class="a" y2="195.551" transform="translate(1396.749 563.825)"/><line class="a" y2="239.007" transform="translate(1440.204 563.825)"/><text class="b" transform="translate(658 482)"><tspan x="0" y="0">C3P</tspan></text></g></svg>